<?xml version="1.0" standalone="no"?>
<!DOCTYPE svg PUBLIC "-//W3C//DTD SVG 1.1//EN" "http://www.w3.org/Graphics/SVG/1.1/DTD/svg11.dtd" >
<!--
2013-9-30: Created.
-->
<svg>
<metadata>
Created by iconfont
</metadata>
<defs>

<font id="iconfont" horiz-adv-x="1024" >
  <font-face
    font-family="iconfont"
    font-weight="500"
    font-stretch="normal"
    units-per-em="1024"
    ascent="896"
    descent="-128"
  />
    <missing-glyph />
    
    <glyph glyph-name="fj" unicode="&#58880;" d="M513.921024 190.77120000000002c199.27552 0 360.820736-45.759488 360.820736-102.207488s-161.545216-102.208512-360.820736-102.208512-360.820736 45.760512-360.820736 102.208512S314.645504 190.77120000000002 513.921024 190.77120000000002c-248.482816 0-449.917952-57.058304-449.917952-127.444992 0-70.385664 201.435136-127.446016 449.917952-127.446016s449.917952 57.060352 449.917952 127.446016C963.84 133.712896 762.404864 190.77120000000002 513.921024 190.77120000000002zM740.742144 603.1400960000001c0 126.367744-110.357504 228.795392-228.856832 228.795392-118.501376 0-228.876288-102.445056-228.876288-228.795392 0-24.160256-6.263808-49.585152 28.612608-137.269248 19.011584-47.828992 200.262656-366.041088 200.262656-366.041088s180.640768 316.75392 200.24832 366.041088C746.993664 553.5539200000001 740.742144 578.978816 740.742144 603.1400960000001zM512.333824 499.438592c-54.28736-0.017408-98.265088 44.665856-98.265088 99.812352 0 55.110656 44.000256 99.8144 98.265088 99.8144 54.270976 0 98.28864-44.70272 98.28864-99.8144C610.622464 544.12288 566.6048 499.438592 512.333824 499.438592z"  horiz-adv-x="1024" />

    
    <glyph glyph-name="yl" unicode="&#58901;" d="M797.226 477.831h-1.628c-22.105-39.661-54.224-74.048-93.531-100.359l-61.929-431.359c0-34.531-28.11-62.527-62.806-62.527h-125.618c-34.695 0-62.845 27.997-62.845 62.527l-61.866 431.359c-39.356 26.314-71.442 60.701-93.537 100.359h-1.628c-34.695 0-62.858 28.004-62.858 62.549v62.545c0 25.775 15.678 47.831 37.987 57.445 29.635 127.888 156.048 224.045 307.549 224.045 151.521 0 277.924-96.154 307.538-224.045 22.363-9.61 38.017-31.669 38.017-57.445v-62.545c0.002-34.546-28.15-62.549-62.845-62.549v0zM451.713 8.672000000000025c8.819-31.442 8.249-62.559 31.401-62.559h62.819c23.106 0 24.545 30.139 31.395 62.559l59.905 335.106c-37.677-14.381-79.141-22.337-122.705-22.337-43.552 0-85.021 7.958-122.742 22.337l59.936-335.106zM514.524 383.996c85.363 0 160.668 37.164 206.074 93.845h-412.135c45.398-56.678 120.706-93.845 206.069-93.845v0zM514.524 821.867c-113.822 0-209.851-65.951-240.765-156.384h481.509c-30.881 90.436-126.924 156.384-240.746 156.384v0zM765.81 602.928h-502.573c-17.375 0-31.401-13.998-31.401-31.285 0-17.258 14.031-31.254 31.401-31.254h502.573c17.379 0 31.418 13.998 31.418 31.254 0 17.29-14.035 31.285-31.418 31.285v0z"  horiz-adv-x="1024" />

    
    <glyph glyph-name="ktv" unicode="&#58892;" d="M510.54537 864.092289c264.333294 0 478.617705-214.290551 478.617705-478.620775 0-264.335341-214.283388-478.613612-478.617705-478.613612S31.927665 121.13617399999998 31.927665 385.471514C31.927665 649.801738 246.211053 864.092289 510.54537 864.092289L510.54537 864.092289zM589.938582 709.394998L589.938582 709.394998c0.019443-5.173836 0.428765-10.561543 1.214664-16.119119 5.803169-40.786938 30.497595-87.97568 64.176648-128.432091 33.586956-40.358173 75.355245-73.070202 115.284653-84.989673 10.069333-3.018753 19.910469-4.628414 29.297256-4.589528 37.72316 58.853409 34.471093 137.720641-13.178137 193.725166C737.162668 727.247598 655.472134 741.990371 589.938582 709.394998L589.938582 709.394998zM258.960425 261.616672c-0.506537-28.991288 14.100136-44.968168 42.066071-49.434899l307.645752 206.754924c-42.481534 26.875091-78.691223 71.122851-97.400331 117.700679L258.960425 261.616672 258.960425 261.616672zM268.997012 195.99818500000003l-32.003901 30.764678c-37.625946-39.248909-48.038086-83.205027-37.85312-118.064976 5.108345-17.541515 15.32708-32.692586 29.848819-43.910069 14.112416-10.905374 32.081673-17.994839 53.153594-19.799952 53.550637-4.583388 130.007983 25.914206 213.751269 119.771851 65.798589 73.733305 122.666784 108.301612 167.698396 116.175953 22.506597 3.965312 41.625026 1.01819 56.925501-7.031137 15.307637-8.042163 27.343765-21.311375 35.509748-38.008662 14.566764-29.673833 17.267269-69.708642 5.621021-111.333668l42.780339-11.982916c14.626115 52.206012 10.634198 103.619986-8.581446 142.804427-12.32163 25.102724-30.79026 45.279253-54.646598 57.80759-23.837918 12.542664-52.550867 17.314341-85.261872 11.562337-54.06229-9.458419-120.04405-48.39522-193.269795-130.450051-72.849168-81.633229-135.195122-108.534925-176.871313-104.977913-12.223393 1.051959-22.234397 4.831029-29.673833 10.595312-6.992251 5.414313-11.912307 12.697183-14.385639 21.13639C235.694535 141.675976 243.44608 169.34412899999995 268.997012 195.99818500000003L268.997012 195.99818500000003zM775.17747 446.669318c-49.752124 16.470113-99.464339 55.263651-138.511657 102.146425-35.554774 42.657542-62.891376 92.75452-73.947176 139.383514-29.212322-35.970236-41.085744-82.048691-34.652218-126.302591 17.878183-53.718459 64.241117-109.346407 115.928313-133.087111C687.345052 416.282241 735.170291 421.877679 775.17747 446.669318z"  horiz-adv-x="1024" />

    
    <glyph glyph-name="waimai" unicode="&#58928;" d="M370.6752 313.56266700000003c-26.2944 0-47.605333-21.310933-47.605333-47.6032 0-26.292267 21.310933-47.6064 47.605333-47.6064 26.292267 0 47.6064 21.314133 47.6064 47.6064C418.2816 292.25173299999994 396.967467 313.56266700000003 370.6752 313.56266700000003zM370.6752 250.08853299999998c-8.7616 0-15.8688 7.109333-15.8688 15.8688 0 8.762667 7.1072 15.8688 15.8688 15.8688 8.759467 0 15.8688-7.106133 15.8688-15.8688C386.544 257.197867 379.434667 250.08853299999998 370.6752 250.08853299999998zM344.228267 525.144533l116.368 0 0-21.1584-116.368 0 0 21.1584ZM688.0448 313.56266700000003c-26.292267 0-47.605333-21.310933-47.605333-47.6032 0-26.292267 21.316267-47.6064 47.605333-47.6064 26.295467 0 47.6064 21.314133 47.6064 47.6064C735.6512 292.25173299999994 714.340267 313.56266700000003 688.0448 313.56266700000003zM688.0448 250.08853299999998c-8.759467 0-15.8688 7.109333-15.8688 15.8688 0 8.762667 7.109333 15.8688 15.8688 15.8688 8.762667 0 15.8688-7.106133 15.8688-15.8688C703.9136 257.197867 696.807467 250.08853299999998 688.0448 250.08853299999998zM512.827733 846.059733c-255.250133 0-462.171733-206.9216-462.171733-462.171733s206.9216-462.171733 462.171733-462.171733S974.999467 128.6368 974.999467 383.88800000000003 768.077867 846.059733 512.827733 846.059733zM301.9104 546.304c0 5.8464 4.731733 10.578133 10.578133 10.578133l179.845333 0c5.8464 0 10.578133-4.731733 10.578133-10.578133l0-95.211733c0.0032-5.848533-4.731733-10.581333-10.578133-10.581333L312.488533 440.510933c-5.8464 0-10.578133 4.731733-10.578133 10.581333L301.9104 546.304zM777.969067 265.95733299999995c0-49.6608-40.261333-89.922133-89.921067-89.922133-44.238933 0-80.933333 31.9648-88.436267 74.053333L459.108267 250.08853299999998c-7.501867-42.088533-44.196267-74.053333-88.4352-74.053333-47.872 0-86.904533 37.44-89.653333 84.6336l-0.2688 0 0 52.893867 52.896 74.055467L301.9104 387.618133l0 31.735467 201.0016 0 0-31.735467-31.7376-52.896 79.933867 0 47.015467 84.631467 0 63.474133-31.7376 0L566.386133 514.564267l84.6336 0 0-0.536533c1.746133 0.2496 3.480533 0.536533 5.287467 0.536533 20.446933 0 37.0272-16.581333 37.0272-37.025067 0-1.696-0.279467-3.328-0.494933-4.96l0.494933-0.330667-0.712533-1.778133c-0.877867-4.545067-2.634667-8.737067-5.0112-12.520533l-15.434667-38.597333 0-52.893867 21.159467-10.578133-0.3712-0.2496c47.3568-2.561067 85.0048-41.675733 85.0048-89.671467L777.969067 265.95733299999995z"  horiz-adv-x="1024" />

    
    <glyph glyph-name="laba88" unicode="&#58886;" d="M598.943396 810.988679c0 38.641509-30.913208 73.418868-73.418868 73.418868-15.456604 0-30.913208-7.728302-42.50566-15.456604l0 0 0 0c-3.864151-3.864151-7.728302-7.728302-11.592453-11.592453L255.033962 648.69434 104.332075 648.69434C27.049057 656.422642 15.456604 586.867925 15.456604 586.867925l0-27.049057 0-351.637736 0-27.049057c0 0 11.592453-69.554717 88.875472-61.826415l150.701887 0 216.392453-208.664151c3.864151-3.864151 7.728302-7.728302 11.592453-11.592453l0 0 0 0c11.592453-7.728302 27.049057-15.456604 42.50566-15.456604 38.641509 0 73.418868 30.913208 73.418868 73.418868C602.807547-31.396226 598.943396 803.260377 598.943396 810.988679zM278.218868 184.996226 278.218868 184.996226 278.218868 184.996226l-166.158491 0c-34.777358 3.864151-38.641509 42.50566-38.641509 73.418868 0 7.728302 0 216.392453 0 216.392453 0 0 0 27.049057 0 34.777358 0 30.913208 3.864151 69.554717 38.641509 73.418868l166.158491 0 255.033962 243.441509c0 0 0-88.875472 0-88.875472l0-796.015094L278.218868 184.996226zM958.309434 385.932075c0 92.739623-46.369811 173.886792-115.924528 224.120755 0 0-15.456604 11.592453-27.049057 11.592453-19.320755 0-34.777358-15.456604-34.777358-34.777358 0-15.456604 19.320755-30.913208 19.320755-30.913208 54.098113-38.641509 88.875472-100.467925 88.875472-170.022642 0-69.554717-34.777358-131.381132-88.875472-170.022642 0 0 0 0 0 0-7.728302-7.728302-15.456604-15.456604-15.456604-27.049057 0-19.320755 15.456604-34.777358 34.777358-34.777358 7.728302 0 19.320755 3.864151 23.184906 11.592453C915.803774 215.909434 958.309434 297.056604 958.309434 385.932075zM1047.184906 791.667925C1047.184906 791.667925 1047.184906 791.667925 1047.184906 791.667925c-7.728302 3.864151-15.456604 7.728302-23.184906 7.728302-19.320755 0-34.777358-15.456604-34.777358-30.913208 0-11.592453 3.864151-19.320755 11.592453-23.184906 100.467925-85.011321 166.158491-208.664151 166.158491-351.637736 0-142.973585-65.690566-266.626415-166.158491-351.637736 0 0 0 0 0 0-11.592453-3.864151-15.456604-15.456604-15.456604-27.049057 0-19.320755 15.456604-34.777358 34.777358-34.777358 11.592453 0 19.320755 3.864151 23.184906 11.592453 0 0 0 0 3.864151 0 115.924528 96.603774 185.479245 239.577358 185.479245 401.871698C1236.528302 552.090566 1163.109434 695.064151 1047.184906 791.667925z"  horiz-adv-x="1249" />

    
    <glyph glyph-name="huiyuan" unicode="&#58900;" d="M413.265278 381.092787c74.42813 0 124.682697 66.134233 134.76431 154.478304 10.082636 88.344071-60.33618 150.711514-134.76431 150.711514S269.546016 620.563834 278.498922 535.571091C287.451828 450.580394 338.836125 381.092787 413.265278 381.092787zM350.235756 606.409462c16.358573 18.163685 39.912012 29.008684 63.026452 29.008684 24.25645 0 48.39829-10.82044 64.574714-28.951379 10.952446-12.277628 23.255657-33.546024 19.653619-65.129346-5.762237-50.459229-31.277354-109.388363-84.228333-109.388363-49.954739 0-78.648244 56.470129-84.179214 108.949364C326.525752 565.148733 334.042959 588.411553 350.235756 606.409462zM589.385485 318.826652c0 0-129.173988 8.529257-184.262654 8.529257-67.081815 0-189.2042-8.402367-189.2042-8.402367-55.966663-3.364631-101.752452-51.741431-101.752452-107.844194l0-87.214341 576.470337 0 0 87.214341C690.635493 266.990053 645.304052 315.438485 589.385485 318.826652zM639.771035 174.760488 165.030637 174.760488l0 36.343743c0 29.17446 24.703635 55.31891 54.375421 57.107649 1.208525 0.082888 121.168664 8.278547 185.718819 8.278547 52.777017 0 179.642426-8.328689 181.181479-8.42795 28.975938-1.771343 53.464679-27.850301 53.464679-56.958246L639.771035 174.760488zM827.882344 306.901041c0 0-81.023338 6.639211-132.163065 6.639211l0-0.023536 15.45397-51.030234c48.066739-1.042749 111.911836-6.222725 113.13264-6.311753 27.751041-1.969864 51.196009-25.316595 51.196009-50.981115l0-30.234605L753.074567 174.95901l0-50.846038 0.008186-0.026606 173.281555 0 0 81.112366C926.364309 257.548006 882.273115 303.06262 827.882344 306.901041zM700.372252 347.507878c60.540841 0 107.007129 52.510958 115.612111 130.663922 3.87833 35.31532-6.469342 68.713988-29.164227 94.037746-22.225187 24.809035-53.737902 39.035038-86.447884 39.035038-31.830963 0-62.873979-14.150278-85.174891-38.830377-23.195282-25.672706-34.012651-59.071374-30.466895-94.053096C592.56285 401.321504 640.118959 347.507878 700.372252 347.507878zM649.740084 541.204391c13.484106 14.938224 31.951713 23.49818 50.632167 23.49818 19.498076 0 38.376029-8.582469 51.783387-23.543206 13.740956-15.347546 19.983123-35.905768 17.558911-57.896618-4.530177-41.156352-25.406646-89.212858-69.343321-89.212858-41.421388 0-64.979944 46.14804-69.343321 89.01536C628.831892 504.775714 635.468033 525.426033 649.740084 541.204391z"  horiz-adv-x="1024" />

    
    <glyph glyph-name="meishi" unicode="&#58888;" d="M512 896c282.624 0 512-229.376 512-512s-229.376-512-512-512S0 101.37599999999998 0 384 229.376 896 512 896z m0 0c282.624 0 512-229.376 512-512s-229.376-512-512-512S0 101.37599999999998 0 384 229.376 896 512 896zM824.832 482.816c4.608 10.752 8.192 21.504 10.24 33.28 3.072 15.872-15.36 32.768-30.208 21.504-1.024-1.024-2.048-1.536-3.584-2.56 6.144 17.92 8.192 36.864 3.072 55.808-1.536 6.144-10.24 10.24-15.872 6.144-14.336-11.776-26.624-24.576-38.912-38.4 8.192 19.456 19.968 41.472 17.408 61.44-1.024 9.216-10.24 18.432-19.968 14.336-23.04-9.216-36.352-33.28-49.664-53.76 0 1.024 0.512 2.048 0.512 3.072 3.072 16.384-18.432 30.208-30.208 15.872-11.776-14.336-20.992-30.208-27.648-47.104-1.024 3.584-2.56 7.168-4.096 11.264-4.608 11.776-24.064 17.408-30.208 3.072-9.216-22.016-15.872-47.104-18.432-73.216-0.512 1.536-1.536 2.56-2.56 4.096-6.656 9.728-18.432 10.24-26.624 2.56-22.016-19.968-12.288-60.416-2.56-83.968 8.192-19.968 19.968-40.96 35.84-57.344-3.072-2.56-6.144-4.608-9.216-7.168-15.36-13.824-5.632-42.496 14.336-45.568 20.48-3.584 41.472-1.024 61.952 4.096 1.536-1.024 3.584-2.048 5.12-3.072 16.384-8.192 37.888 0.512 41.472 19.456v1.024c15.872 7.168 31.232 15.36 45.056 23.04 42.496 22.528 99.328 64 100.352 117.248 1.024 12.288-14.848 21.504-25.6 14.848zM629.248 573.952c6.144 14.848-6.144 38.912-25.088 30.72-5.12-2.56-10.752-4.608-15.872-7.168 11.776 14.848 22.016 30.72 27.136 48.64s-13.312 30.72-29.184 27.648c-16.384-3.584-31.232-11.264-45.568-21.504 1.024 5.632 2.048 10.752 2.56 16.384 2.048 16.896-17.92 30.72-31.232 16.384-12.8-14.336-27.648-30.72-41.472-48.64-4.096 12.8-12.8 21.504-29.696 17.92-28.16-6.144-37.888-40.448-43.008-66.56-0.512 0-0.512 0.512-1.024 0.512-22.528 13.312-47.104-11.264-41.472-34.304 5.632-22.528 11.776-46.592 28.16-64h-1.024c-27.648 0.512-38.912-30.72-28.16-52.224 37.376-74.24 183.296-64.512 235.52-13.824 11.776 11.264 3.584 29.696-10.24 33.792-2.048 0.512-4.096 1.024-6.656 1.536 16.384 10.24 31.232 22.016 41.984 34.816 7.168 8.704 4.608 25.088-8.192 27.136-6.144 1.024-12.288 1.536-18.944 1.536 17.92 14.336 33.28 30.72 41.472 51.2zM354.816 456.192c0-33.28 27.136-60.416 60.416-60.416 33.28 0 60.416 27.136 60.416 60.416 0 33.28-27.136 60.416-60.416 60.416-33.28 0-60.416-26.624-60.416-60.416 0 0.512 0 0.512 0 0zM616.96 435.2c0-33.28 27.136-60.416 60.416-60.416 33.28 0 60.416 27.136 60.416 60.416 0 33.28-27.136 60.416-60.416 60.416-33.28 0-60.416-27.136-60.416-60.416zM395.264 483.328c-3.072 15.36-20.48 24.064-35.328 22.016 1.024 10.752 0 22.016-3.072 32.768-4.608 17.92-29.696 24.064-41.984 9.728-0.512-0.512-0.512-1.024-1.024-1.024-6.144 17.92-16.896 34.304-27.648 45.056-10.752 10.24-32.768 8.192-38.912-6.656-4.096-10.24-6.656-21.504-7.68-32.768-4.096 2.56-8.192 4.096-13.312 6.144-6.656 2.56-14.336 2.048-21.504 0.512-9.216-2.048-15.36-8.704-20.48-16.384-3.584-5.12-4.608-13.312-4.096-19.456 0.512-7.168 2.56-14.336 7.168-20.48 2.048-3.072 4.608-5.632 7.168-8.192-22.016-7.68-28.672-44.544-4.096-54.784 8.192-3.584 16.384-6.144 24.576-8.704-10.24-9.216-9.216-24.576-0.512-34.304 11.264-12.8 30.72-15.872 46.08-19.968 15.36-4.608 28.16-7.168 42.496-3.072-8.192-18.944-14.336-39.936-1.536-56.32 10.24-13.312 24.576-17.408 40.448-9.728 23.552 11.776 32.768 58.368 42.496 81.408 11.776 30.72 17.92 60.928 10.752 94.208zM756.224 399.36c-34.304-43.008-93.696-54.784-140.8-31.232 5.12-6.656 11.264-12.288 17.408-17.92 49.664-39.936 121.856-31.744 161.792 17.408 39.936 49.664 31.744 121.856-17.408 161.792-6.656 5.12-13.824 9.728-20.992 13.312 32.768-40.448 34.304-100.352 0-143.36zM577.536 405.504c-37.376 37.376-41.984 95.232-14.848 138.24-6.656-4.096-13.312-9.216-18.944-14.848-43.52-43.008-43.52-113.152-0.512-156.672s113.152-43.52 156.672-0.512c5.632 5.632 10.752 11.776 14.848 18.944-42.496-28.16-99.84-23.04-137.216 14.848z m-244.224-5.632c-52.736 7.168-91.136 50.176-95.232 100.864-2.56-7.68-4.608-15.36-6.144-23.04-8.192-60.416 33.792-116.736 94.72-124.928 60.416-8.192 116.736 33.792 124.928 94.72 1.024 8.192 1.024 16.384 0.512 24.064-17.408-48.128-66.048-78.848-118.784-71.68zM176.64 422.912c4.096-183.296 153.6-330.24 337.92-330.24s333.824 146.944 337.92 330.24h-675.84zM659.456 99.84000000000003c0-10.752-8.704-19.456-19.456-19.456H382.464c-10.752 0-19.456 8.704-19.456 19.456v3.072c0 10.752 8.704 19.456 19.456 19.456H640c10.752 0 19.456-8.704 19.456-19.456v-3.072z"  horiz-adv-x="1024" />

    
    <glyph glyph-name="ewm" unicode="&#58881;" d="M62.996776 411.938306l423.162696 0L486.159472 835.099978 62.996776 835.099978 62.996776 411.938306zM168.788218 729.30956l211.580836 0 0-211.580836L168.788218 517.728724 168.788218 729.30956zM539.055193 835.099978l0-423.162696 423.162696 0L962.217888 835.099978 539.055193 835.099978zM856.426447 517.728724L644.845611 517.728724 644.845611 729.30956l211.580836 0L856.426447 517.728724zM221.682915 570.623421l105.790418 0L327.473333 676.414863 221.682915 676.414863 221.682915 570.623421zM62.996776-64.12011099999995l423.162696 0L486.159472 359.04258500000003 62.996776 359.04258500000003 62.996776-64.12011099999995zM168.788218 253.252167l211.580836 0 0-211.580836L168.788218 41.67133100000001 168.788218 253.252167zM803.531749 676.414863L697.740308 676.414863l0-105.790418 105.790418 0L803.530726 676.414863zM539.055193-64.12011099999995l105.790418 0L644.845611 41.67030799999998 539.055193 41.67030799999998 539.055193-64.12011099999995zM644.845611 253.252167l0-211.580836 105.790418 0L750.636029 253.252167 644.845611 253.252167zM856.426447 41.67030799999998L750.636029 41.67030799999998 750.636029-64.12011099999995l211.580836 0L962.216865 147.46174900000005 856.426447 147.46174900000005 856.426447 41.67030799999998zM856.426447 253.252167l105.790418 0L962.216865 359.04258500000003 856.426447 359.04258500000003 856.426447 253.252167zM539.055193 359.04258500000003l0-105.790418 105.790418 0L644.845611 359.04258500000003 539.055193 359.04258500000003zM221.682915 94.56602799999996l105.790418 0L327.473333 200.356446 221.682915 200.356446 221.682915 94.56602799999996z"  horiz-adv-x="1024" />

    
    <glyph glyph-name="dingdan" unicode="&#58887;" d="M215.90599982-128.52670657a142.53123651 142.53123651 0 0 0-142.33598823 142.33598823V754.19071834A142.53123651 142.53123651 0 0 0 215.90599982 896.52670657h592.2856245a142.53123651 142.53123651 0 0 0 142.33598823-142.33598823v-740.28381256a142.53123651 142.53123651 0 0 0-142.33598823-142.33598821z m0 962.37871874a79.85654209 79.85654209 0 0 1-79.75891797-79.75891795v-740.28381256a79.85654209 79.85654209 0 0 1 79.75891797-79.75891795h592.2856245a79.85654209 79.85654209 0 0 1 79.75891797 79.75891795V754.19071834a79.85654209 79.85654209 0 0 1-79.75891797 79.75891795zM277.70207699 352.66265281000005a31.33734719 31.33734719 0 1 0 0 62.57707024h468.59584602a31.33734719 31.33734719 0 1 0 0-62.57707024zM277.70207699 204.66446478a31.33734719 31.33734719 0 1 0 0 62.18657373h319.71904077a31.33734719 31.33734719 0 1 0 0-62.67469441zM277.70207699 501.14896149a31.33734719 31.33734719 0 1 0 0 62.67469441h468.59584602a31.33734719 31.33734719 0 1 0 0-62.67469441z"  horiz-adv-x="1024" />

    
    <glyph glyph-name="xjt" unicode="&#58947;" d="M512.18365184 227.98984212000005l-403.42645487 403.41955068c-16.9429169 16.9567253-44.44374272 16.9567253-61.38804049-1e-8-16.95810612-16.9429169-16.95810614-44.44374272 0-61.38804048l434.11978469-434.11978467c16.9429169-16.9567253 44.44374272-16.9567253 61.38804045 0l434.11840388 434.11978467c8.47836265 8.4728393 12.71892482 19.58446539 12.71892479 30.69332982s-4.24056217 22.22049053-12.71892481 30.69332982c-16.9429169 16.9567253-44.44374272 16.9567253-61.38804047 0l-403.42507402-403.41955066z"  horiz-adv-x="1024" />

    
    <glyph glyph-name="shangjiantou" unicode="&#58889;" d="M511.81634816 625.34211034l403.42645487-403.41955064c16.9429169-16.9567253 44.44374271-16.9567253 61.38804048 0 16.95810612 16.9429169 16.95810614 44.44374272-1e-8 61.38804046l-434.11978467 434.11978467c-16.9429169 16.9567253-44.44374271 16.9567253-61.38804047 0l-434.11840384-434.11978467c-8.47836265-8.4728393-12.71892482-19.58446539-12.71892481-30.69332981s4.24056217-22.22049053 12.71892479-30.69332982c16.9429169-16.9567253 44.44374271-16.9567253 61.38804049-1e-8l403.42507402 403.41955068z"  horiz-adv-x="1024" />

    
    <glyph glyph-name="members" unicode="&#58890;" d="M512 384a204.8 204.8 0 1 0 0 409.6 204.8 204.8 0 0 0 0-409.6z m-230.4-51.2h460.8a179.2 179.2 0 0 0 179.2-179.2V25.6a51.2 51.2 0 0 0-51.2-51.2H153.6a51.2 51.2 0 0 0-51.2 51.2v128A179.2 179.2 0 0 0 281.6 332.8z"  horiz-adv-x="1024" />

    
    <glyph glyph-name="tixing" unicode="&#59310;" d="M925.007 189.506c-9.007 8.122-23.22 18.37-42.243 30.457-5.865 3.726-9.318 10.111-9.238 17.079l0.032 2.54c0.61 51.781 1.53 130.034-12.192 209.543-16.686 96.68-51.422 172.287-103.242 224.72-40.83 41.315-92.435 68.674-154.065 81.819-3.057 19.095-12.198 36.341-26.517 49.57-17.136 15.828-40.166 24.546-64.847 24.546-24.68 0-47.71-8.719-64.845-24.546-14.315-13.222-23.455-30.464-26.515-49.553-61.343-13.07-112.581-40.223-152.973-81.204-117.15-118.867-114.2-322.051-112.615-431.208l0.086-5.973c0.1-6.964-3.509-13.566-9.417-17.232-19.404-12.038-33.984-22.151-43.335-30.056-24.834-20.994-39.077-51.649-39.077-84.103 0-28.355 23.067-51.422 51.422-51.422h277.24c0.54-65.734 54.174-119.045 120.032-119.045S632.19-11.25 632.73 54.483H908.12c29.375 0 53.272 23.898 53.272 53.272-0.002 31.103-13.262 60.9-36.385 81.751zM512.694 789.764c14.587 0 27.973-4.945 37.694-13.925 4.254-3.93 7.625-8.439 10.07-13.418-15.392 1.55-31.313 2.334-47.763 2.334-16.396 0-32.257-0.776-47.587-2.309 8.211 16.448 25.978 27.318 47.586 27.318z m0.002-814.31c-43.793 0-79.465 35.364-80.005 79.03H592.7c-0.54-43.667-36.213-79.03-80.005-79.03zM908.118 94.5H115.423c-6.29 0-11.407 5.117-11.407 11.406 0 20.653 9.074 40.17 24.896 53.544 7.753 6.553 21.1 15.756 38.6 26.614 17.772 11.026 28.627 30.875 28.33 51.799l-0.086 5.986c-1.5 103.307-4.292 295.6 101.105 402.538 51.24 51.99 123.858 78.352 215.833 78.352 92.149 0 165.147-26.586 216.967-79.022 45.959-46.502 77.004-114.937 92.272-203.399 13.098-75.896 12.204-151.944 11.611-202.266l-0.03-2.542c-0.246-20.923 10.144-40.108 27.789-51.322 16.656-10.584 29.764-19.959 36.906-26.398 14.722-13.277 23.166-32.243 23.166-52.034 0-7.309-5.948-13.256-13.257-13.256zM450.672 682.724c-24.2 0-58.362-22.533-82.263-43.62-19.808-17.478-54.382-53.17-63.362-95.837-2.276-10.812 4.644-21.424 15.457-23.698 1.39-0.293 2.774-0.434 4.14-0.434 9.26 0 17.575 6.467 19.558 15.89 4.824 22.911 23.296 49.91 50.682 74.072 26.59 23.462 49.811 33.61 55.788 33.61 11.049 0 20.008 8.958 20.008 20.008 0 11.05-8.96 20.009-20.008 20.009z"  horiz-adv-x="1024" />

    
    <glyph glyph-name="dizhi" unicode="&#58896;" d="M512 896C299.008 896 122.88 715.776 122.88 494.592 122.88 281.6 471.04-99.328 487.424-115.712c4.096-8.192 16.384-12.288 24.576-12.288 8.192 0 20.48 4.096 24.576 12.288l118.784 143.36c159.744 204.8 241.664 360.448 241.664 466.944C901.12 715.776 724.992 896 512 896z m0-585.728c-98.304 0-176.128 81.92-176.128 184.32s77.824 184.32 176.128 184.32 176.128-81.92 176.128-184.32-77.824-184.32-176.128-184.32z m0 0"  horiz-adv-x="1024" />

    
    <glyph glyph-name="dyy" unicode="&#58882;" d="M943.227049 36.41991800000005v-87.435297h-434.682901c98.144922 0 188.745153 32.544473 261.506665 87.435297h173.176236zM508.544148 818.318454c240.055446 0 434.682901-194.595486 434.682901-434.650932 0-141.910524-67.998127-267.900471-173.176236-347.247604-72.761512-54.890825-163.361743-87.435297-261.506665-87.435297-240.055446 0-434.650932 194.595486-434.650932 434.682901 0 240.055446 194.595486 434.650932 434.650932 434.650932z m276.372264-278.098592c0 53.548125-43.413943 96.930099-96.962068 96.930099-53.516156 0-96.930099-43.381974-96.930099-96.930099s43.413943-96.962068 96.930099-96.962068c53.548125 0 96.962068 43.413943 96.962068 96.962068z m0-337.81674c0 53.548125-43.413943 96.962068-96.962068 96.962068-53.516156 0-96.930099-43.413943-96.930099-96.962068 0-53.516156 43.413943-96.930099 96.930099-96.930099 53.548125 0 96.962068 43.413943 96.962068 96.930099z m-223.335643 168.924355c0 23.465268-19.053542 42.486841-42.51881 42.48684s-42.486841-19.021573-42.486841-42.48684c0-23.497237 19.021573-42.51881 42.486841-42.51881s42.51881 19.021573 42.51881 42.51881z m-114.481097 168.892385c0 53.548125-43.381974 96.930099-96.930099 96.930099s-96.930099-43.381974-96.930099-96.930099 43.381974-96.962068 96.930099-96.962068 96.930099 43.413943 96.930099 96.962068z m0-337.81674c0 53.548125-43.381974 96.962068-96.930099 96.962068s-96.930099-43.413943-96.930099-96.962068c0-53.516156 43.381974-96.930099 96.930099-96.930099s96.930099 43.413943 96.930099 96.930099zM508.544148-73.39369999999997c-252.00547 0-457.029253 205.036571-457.029253 457.061222 0 252.008667 205.023783 457.029253 457.029253 457.029253 252.024651 0 457.061222-205.020586 457.061222-457.029253 0-144.74298-66.364509-277.820461-182.076414-365.111898-79.740352-60.152927-174.829034-91.949324-274.984808-91.949324z m0 869.333833c-227.328575 0-412.272611-184.944035-412.272611-412.272611 0-227.347757 184.944035-412.30458 412.272611-412.30458 90.350873 0 176.117386 28.67622 248.028522 82.92127 104.398064 78.758902 164.276058 198.812201 164.276058 329.38331 0 227.328575-184.96002 412.272611-412.30458 412.272611zM340.578864 430.470182c-65.78587 0-119.30842 53.535338-119.30842 119.340389 0 65.78587 53.52255 119.30842 119.30842 119.30842 65.789067 0 119.30842-53.52255 119.30842-119.30842 0-65.805051-53.519353-119.340389-119.30842-119.340389z m0 193.892167c-41.105779 0-74.551778-33.442802-74.551778-74.551778 0-41.12496 33.442802-74.583747 74.551778-74.583747s74.551778 33.458787 74.551778 74.583747c0 41.108976-33.442802 74.551778-74.551778 74.551778zM678.363635 430.470182c-65.78587 0-119.30842 53.535338-119.30842 119.340389 0 65.78587 53.52255 119.30842 119.30842 119.30842 65.805051 0 119.340389-53.52255 119.340389-119.30842 0-65.805051-53.535338-119.340389-119.340389-119.340389z m0 193.892167c-41.105779 0-74.551778-33.442802-74.551778-74.551778 0-41.12496 33.445999-74.583747 74.551778-74.583747 41.12496 0 74.583747 33.458787 74.583747 74.583747 0 41.108976-33.458787 74.551778-74.583747 74.551778zM340.578864 92.68541100000004c-65.78587 0-119.30842 53.52255-119.30842 119.30842 0 65.805051 53.52255 119.340389 119.30842 119.340389 65.789067 0 119.30842-53.535338 119.30842-119.340389 0-65.78587-53.519353-119.30842-119.30842-119.30842z m0 193.892167c-41.105779 0-74.551778-33.458787-74.551778-74.583747 0-41.105779 33.442802-74.551778 74.551778-74.551778s74.551778 33.445999 74.551778 74.551778c0 41.128157-33.442802 74.583747-74.551778 74.583747zM678.363635 92.68541100000004c-65.78587 0-119.30842 53.52255-119.30842 119.30842 0 65.805051 53.52255 119.340389 119.30842 119.340389 65.805051 0 119.340389-53.535338 119.340389-119.340389 0-65.78587-53.535338-119.30842-119.340389-119.30842z m0 193.892167c-41.105779 0-74.551778-33.458787-74.551778-74.583747 0-41.105779 33.445999-74.551778 74.551778-74.551778 41.12496 0 74.583747 33.445999 74.583747 74.551778 0 41.128157-33.458787 74.583747-74.583747 74.583747zM509.47125 316.02105500000005c-35.766951 0-64.865162 29.110999-64.865162 64.897131 0 35.766951 29.098211 64.865162 64.865162 64.865161 35.782935 0 64.897131-29.098211 64.897131-64.865161 0-35.782935-29.114196-64.897131-64.897131-64.897131z m0 85.00565a20.134095 20.134095 0 0 1-20.10852-20.108519c0-11.106041 9.02166-20.140489 20.10852-20.140489 11.106041 0 20.140489 9.034448 20.140489 20.140489 0 11.08686-9.034448 20.10852-20.140489 20.108519zM943.227049-73.39369999999997h-434.682901a22.378321 22.378321 0 1 0 0 44.756642h434.682901a22.378321 22.378321 0 1 0 0-44.756642zM943.227049 14.041597000000024h-173.176236a22.378321 22.378321 0 1 0 0 44.756642h173.176236a22.378321 22.378321 0 1 0 0-44.756642z"  horiz-adv-x="1024" />

    
    <glyph glyph-name="xiaoxi" unicode="&#58950;" d="M562.8-34.620000000000005c-14.29-14.29-32.16-21.44-50-21.44s-35.73 7.15-50 21.44-35.73 14.3-50 0-14.29-35.73 0-50c25-25 60.74-42.87 100-42.87s75 14.29 100 42.87c14.29 14.29 14.29 35.73 0 50s-35.73 14.3-50 0z m414.47 157.21a71.67 71.67 0 0 0-71.46 71.46V444.16c0 218-175.08 393-393 393s-393-175.08-393-393v-250.11a71.67 71.67 0 0 0-71.51-71.46c-21.44 0-35.73-14.29-35.73-35.73s14.29-35.73 35.73-35.73h929c21.44 0 35.73 14.29 35.73 35.73s-14.29 35.73-35.73 35.73z m-803.92 0c10.72 21.41 17.87 46.41 17.87 71.46V444.16c0 178.65 142.92 321.57 321.56 321.57s321.57-142.92 321.57-321.57v-250.11c0-25 7.15-50 17.87-71.46z m0 0"  horiz-adv-x="1024" />

    
    <glyph glyph-name="xjt-2" unicode="&#58891;" d="M512.18365184 142.65788966000002l-403.42645487 403.41955064c-16.9429169 16.9567253-44.44374271 16.9567253-61.38804048 0-16.95810612-16.9429169-16.95810614-44.44374272 1e-8-61.38804046l434.11978467-434.11978467c16.9429169-16.9567253 44.44374271-16.9567253 61.38804047 0l434.11840384 434.11978467c8.47836265 8.4728393 12.71892482 19.58446539 12.71892481 30.69332981s-4.24056217 22.22049053-12.71892479 30.69332982c-16.9429169 16.9567253-44.44374271 16.9567253-61.38804049 1e-8l-403.42507402-403.41955068z"  horiz-adv-x="1024" />

    
    <glyph glyph-name="huiyuan1" unicode="&#58893;" d="M0 630.045532l3.554091 9.939408a68.612036 68.612036 0 0 0 126.501559 9.577975 67.88917 67.88917 0 0 0-9.216542-75.419024c-2.168598-2.409554-4.276957-4.758868-6.686511-7.529855 50.962057-31.203718 101.683158-62.046003 152.163304-93.129243 19.15595-12.047768 38.37214-23.673863 57.52809-35.119242 10.963468-6.445556 19.396906-4.517913 25.300312 6.023884 58.010001 105.71916 116.08024 211.619036 174.692629 318.482734-25.300312 12.830872-41.685276 32.468733-43.191247 61.564092a66.262721 66.262721 0 0 0 20.661921 52.106594 68.792753 68.792753 0 0 0 100.960292-5.66245c28.974881-35.480675 18.493323-77.045473-27.46891-108.429908 14.999471-27.408671 30.119419-54.998059 45.299606-82.466969q63.250779-115.176657 126.501559-230.112359c9.698453-17.770457 15.842814-19.396906 33.251838-9.035826q97.827872 59.636449 195.475028 119.694571c3.011942 1.867404 6.023884 3.795047 9.457498 6.023883a71.142067 71.142067 0 0 0-23.011236 47.468204A68.732514 68.732514 0 0 0 1096.346844 637.575387c0.783105-2.650509 1.867404-5.421495 2.891464-8.072004v-23.673864c-11.083946-35.480675-33.854227-56.142597-73.009471-56.383552-1.385493-4.036002-2.891464-8.072004-4.036002-12.047767q-57.226896-196.197894-114.453792-392.636743c-4.879346-17.10783-10.963468-21.505265-28.191776-21.505265H220.534384c-18.493323 0-24.095535 4.276957-29.215836 21.505265-31.08324 106.261309-61.985764 212.763574-92.888287 318.904406-8.31296 28.673687-16.866875 57.407612-25.300312 86.201776-29.215836 0-51.263251 11.565857-64.937467 36.745691A206.739691 206.739691 0 0 0 0.120478 606.2511910000001v23.794341z m0 0M549.197482 54.94534999999996h307.760221a51.32349 51.32349 0 0 0 11.565857-101.56268 45.118889 45.118889 0 0 0-11.565857-1.144538H241.196306a51.32349 51.32349 0 0 0-49.998236 35.119242 49.034414 49.034414 0 0 0 18.071652 57.166657 66.86511 66.86511 0 0 0 33.854226 10.421319c102.10483 0.481911 204.028943 0 305.892818 0z m0 0"  horiz-adv-x="1255" />

    
    <glyph glyph-name="shouji" unicode="&#58885;" d="M675.49866667-93.98044445000005H330.06933333c-59.50577778 0-107.97511111 50.97244445-107.97511111 113.55022223V791.552c0 62.57777778 48.46933333 113.55022222 107.97511111 113.55022222h345.42933334c59.50577778 0 107.97511111-50.97244445 107.97511111-113.55022222v-771.98222222c-0.11377778-62.57777778-48.46933333-113.55022222-107.97511111-113.55022223zM330.06933333 859.59111111c-35.72622222 0-64.73955555-30.60622222-64.73955555-68.15288889v-771.98222222c0-37.54666667 29.01333333-68.15288889 64.73955555-68.15288889h345.42933334c35.72622222 0 64.73955555 30.60622222 64.73955555 68.15288889V791.552c0 37.54666667-29.01333333 68.15288889-64.73955555 68.15288889H330.06933333zM595.62666667 816.46933333H409.82755555c-37.66044445 0-68.15288889 30.49244445-68.15288888 68.15288889h322.10488888c0-37.66044445-30.49244445-68.15288889-68.15288888-68.15288889z"  horiz-adv-x="1024" />

    
    <glyph glyph-name="xuanzhong" unicode="&#58883;" d="M562.805 815.3025a72.135 72.135 0 0 1-96.93 0L73.925 443.13a36.1575 36.1575 0 0 1 48.42-53.7075l6.2325 5.9175V6.899999999999977a72.315 72.315 0 0 1 72.315-72.405h210.4425v217.71a50.9175 50.9175 0 0 0 50.94 50.985h99.0225a50.9175 50.9175 0 0 0 50.94-50.985v-217.71h215.4375a72.315 72.315 0 0 1 72.3375 72.405V390.5925c16.065-14.535 38.8575-13.4325 52.2225 1.4625a36.1575 36.1575 0 0 1-2.61 51.075L562.805 815.28z"  horiz-adv-x="1024" />

    
    <glyph glyph-name="gouwuche" unicode="&#58894;" d="M908.629 152.235H257.877c-19.2853 0-37.376 7.50933-50.8587 21.1627-13.4827 13.6533-20.992 31.5733-20.8213 50.8587l2.38933 479.232c0 19.1147-6.656 31.9147-39.7653 37.2053h-0.170666l-95.5733 16.384c-9.216 1.536-15.5307 10.4107-13.9947 19.6267 1.536 9.216 10.4107 15.5307 19.6267 13.9947l95.4027-16.384c45.3973-7.168 68.4373-31.0613 68.4373-70.9973L220.16 223.91499999999996c0-10.0693 3.75467-19.456 10.9227-26.4533 7.168-7.168 16.5547-11.0933 26.624-11.0933h650.752c9.38667 0 17.0667-7.68 17.0667-17.0667s-7.50933-17.0667-16.896-17.0667ZM859.989 250.197l-602.624 1.87733c-18.944 0.170667-36.6933 7.50933-50.0053 20.992-13.312 13.4827-20.48 31.232-20.48 50.176l1.87733 353.963L870.571 626.347c30.8907-1.19467 55.1253-26.2827 55.1253-57.1733V315.73299999999995c0-36.1813-29.5253-65.536-65.7067-65.536ZM257.707 286.20799999999997l602.453-1.87733c17.408 0 31.5733 14.1653 31.5733 31.4027V569.173c0 12.4587-9.89867 22.6987-22.3573 23.04h-0.682667l-645.632 48.128-1.536-317.44c0-9.728 3.75467-18.944 10.5813-25.9413 6.48533-6.82667 15.7013-10.752 25.6-10.752ZM324.096 95.91499999999996m-63.6587 0a63.6587 63.6587 0 1 1 127.317 0 63.6587 63.6587 0 1 1-127.317 0ZM324.096 15.188999999999965c-44.544 0-80.7253 36.1813-80.7253 80.7253s36.1813 80.7253 80.7253 80.7253c44.544 0 80.7253-36.1813 80.7253-80.7253s-36.1813-80.7253-80.7253-80.7253Zm0 127.317c-25.7707 0-46.592-20.8213-46.592-46.592s20.8213-46.592 46.592-46.592 46.592 20.8213 46.592 46.592-20.8213 46.592-46.592 46.592ZM812.715 95.91499999999996m-63.6587 0a63.6587 63.6587 0 1 1 127.317 0 63.6587 63.6587 0 1 1-127.317 0ZM812.715 15.188999999999965c-44.544 0-80.7253 36.1813-80.7253 80.7253s36.1813 80.7253 80.7253 80.7253 80.7253-36.1813 80.7253-80.7253-36.1813-80.7253-80.7253-80.7253Zm0 127.317c-25.7707 0-46.592-20.8213-46.592-46.592s20.8213-46.592 46.592-46.592 46.592 20.8213 46.592 46.592-20.8213 46.592-46.592 46.592ZM710.315 478.037H362.496c-9.38667 0-17.0667 7.68-17.0667 17.0667s7.68 17.0667 17.0667 17.0667h347.819c9.38667 0 17.0667-7.68 17.0667-17.0667s-7.68-17.0667-17.0667-17.0667ZM710.315 379.904H362.496c-9.38667 0-17.0667 7.68-17.0667 17.0667s7.68 17.0667 17.0667 17.0667h347.819c9.38667 0 17.0667-7.68 17.0667-17.0667s-7.68-17.0667-17.0667-17.0667Z"  horiz-adv-x="1024" />

    
    <glyph glyph-name="jiudian" unicode="&#58925;" d="M1131.285943-9.85965699999997H1053.257143V620.309943c0 23.639771-19.514514 39.380114-38.999772 39.380114h-273.086171v196.900572C741.1712 880.288914 721.685943 896 702.171429 896H156.028343C132.622629 896 117.028571 880.259657 117.028571 856.619886v-866.479543H38.999771c-23.405714 0-38.999771-15.740343-38.999771-39.380114v-39.380115C0-112.25965699999995 15.594057-128 38.999771-128h1092.286172c23.405714 0 38.999771 15.740343 38.999771 39.380114v39.380115c0 23.639771-15.594057 39.380114-38.999771 39.380114z m-351.085714 433.239771h117.028571v-118.140343h-117.028571v118.140343z m0-196.900571h117.028571v-118.198857h-117.028571v118.198857zM468.114286 620.2514289999999h117.028571v-118.140343h-117.028571V620.309943z m0-196.900572h117.028571v-118.140343h-117.028571v118.140343z m0-196.900571h117.028571v-118.198857h-117.028571v118.198857zM273.056914 620.2514289999999h117.028572v-118.140343h-117.028572V620.309943z m0-196.900572h117.028572v-118.140343h-117.028572v118.140343z m0-196.900571h117.028572v-118.198857h-117.028572v118.198857z"  horiz-adv-x="1170" />

    
    <glyph glyph-name="shanchu" unicode="&#58898;" d="M517.59 874.391c-100.299 0-181.703-79.514-185.167-179.34H98.603c-25.979 0-47.235-21.099-47.235-47.236 0-25.98 21.099-47.237 47.236-47.237h52.117v-528.416c0-99.196 67.233-180.285 150.37-180.285h423.55c82.98 0 150.37 80.616 150.37 180.285V600.263h47.236c25.98 0 47.236 21.1 47.236 47.237 0 25.98-21.099 47.236-47.236 47.236H702.441C699.449 794.876 617.888 874.39 517.59 874.39z m-96.677-179.34c3.464 51.172 45.19 90.85 96.834 90.85s93.37-39.835 96.362-90.85H420.913z m-119.98-714.842c-29.444 0-61.88 37.789-61.88 91.953V600.263h547.311V71.69c0-54.007-32.436-91.954-61.88-91.954H300.933v0.473z m0 0M364.387 93.733c21.57 0 39.363 21.571 39.363 48.653V419.978c0 27.082-17.635 48.654-39.363 48.654-21.572 0-39.364-21.572-39.364-48.654v-277.592c0-26.924 17.32-48.653 39.364-48.653z m142.496 0c21.571 0 39.363 21.571 39.363 48.653V419.978c0 27.082-17.635 48.654-39.363 48.654-21.571 0-39.364-21.572-39.364-48.654v-277.592c0-26.924 17.793-48.653 39.364-48.653z m149.896 0c21.571 0 39.364 21.571 39.364 48.653V419.978c0 27.082-17.635 48.654-39.364 48.654-21.571 0-39.363-21.572-39.363-48.654v-277.592c0-26.924 17.162-48.653 39.363-48.653z m0 0"  horiz-adv-x="1024" />

    
    <glyph glyph-name="wode" unicode="&#58884;" d="M937.61006727-102.56121799000005H83.11028251c-17.66404996 0-35.32810133 8.83202498-46.36679418 22.08095656-11.04047828 15.45559806-15.45559806 33.11964803-11.0404769 50.78369801C69.86313775 195.51918928999999 253.12721605 363.32945497000003 473.92784761 380.99350494c8.83202498 2.20666787 15.45559806 2.20666787 26.49607494 2.20666787v-22.08095655c-8.83202498 0-15.45559806 0-24.28762303-2.2066665-211.970392-15.45559806-388.61089724-176.64050524-430.56257025-393.02601839-2.20845329-11.04047828 0-24.28762304 8.83202498-33.11964803 6.62357307-8.83202498 17.66404996-13.24714477 28.70274282-13.24714477h854.49978478c11.04047828 0 22.07917113 4.41511977 28.70452825 13.24714477 6.6253585 8.83202498 11.04047828 19.87250326 8.83202498 33.11964803-26.49607633 141.31240393-112.60787568 262.75230595-234.04777632 331.20184073-13.24893019 8.83202498-28.70452825 15.45559806-41.95345983 22.08095656l8.83202498 19.87071783c15.45559806-6.62357307 30.91119613-15.45559806 44.16012771-22.07917112 128.06347373-72.86465456 216.38372635-198.72146179 245.08825459-346.65743879 4.41690521-17.66404996 0-35.32810133-13.24714475-50.78369801-11.03690742-13.24893019-28.70274283-22.08095518-46.36679419-22.08095656zM507.04928107 361.12100167000006h-4.41690522v22.08095657h6.62535851l-2.20845329-22.08095657zM515.88130605 361.12100167000006c-139.103952 0-253.92028096 114.81632897-253.9202796 253.92028096s114.81632897 253.92028096 253.9202796 253.92027959S769.80158701 754.14523465 769.80158701 615.0412826300001s-114.81632897-253.92028096-253.92028096-253.92028096z m0 485.76139081c-128.06347373 0-231.84110983-103.77763611-231.84110983-231.84110985s103.77585069-231.84110983 231.84110983-231.84110982 231.84110983 103.77585069 231.84110984 231.84110982S643.94656519 846.88239248 515.88130605 846.88239248z"  horiz-adv-x="1024" />

    
    <glyph glyph-name="aixin" unicode="&#58933;" d="M1066.666667 793.6c-136.533333 128-341.333333 136.533333-477.866667 8.533333-145.066667 128-349.866667 119.466667-486.4-8.533333-136.533333-136.533333-136.533333-349.866667 0-486.4l401.066667-401.066667c42.666667-42.666667 110.933333-42.666667 153.6 0l401.066666 401.066667c145.066667 128 145.066667 349.866667 8.533334 486.4z m-51.2-435.2L614.4-42.66666699999996c-17.066667-17.066667-34.133333-17.066667-51.2 0L153.6 358.4C42.666667 460.8 42.666667 640 153.6 742.4 256 844.8 426.666667 844.8 537.6 750.933333l51.2-42.666666 51.2 42.666666C750.933333 853.333333 913.066667 844.8 1024 742.4c93.866667-110.933333 93.866667-281.6-8.533333-384z"  horiz-adv-x="1169" />

    
    <glyph glyph-name="sousuo" unicode="&#58895;" d="M946.8 12.9L786.2 173.5c55.5 69.4 88.9 157.2 88.9 252.9C875 650.4 693.5 832 469.5 832S64 650.4 64 426.5 245.6 21 469.5 21c95.7 0 183.6 33.4 252.9 88.9L883-50.7c17.6-17.6 46.1-17.6 63.7 0 17.7 17.5 17.7 46 0.1 63.6z m-477.3 98.2c-174.2 0-315.4 141.2-315.4 315.4s141.2 315.4 315.4 315.4 315.4-141.2 315.4-315.4-141.2-315.4-315.4-315.4z"  horiz-adv-x="1024" />

    


  </font>
</defs>
</svg>
